<?xml version="1.0" encoding="utf-8"?>
<!-- Generator: Adobe Illustrator 17.1.0, SVG Export Plug-In . SVG Version: 6.00 Build 0)  -->
<!DOCTYPE svg PUBLIC "-//W3C//DTD SVG 1.1//EN" "http://www.w3.org/Graphics/SVG/1.1/DTD/svg11.dtd">
<svg version="1.1" id="Layer_1" xmlns="http://www.w3.org/2000/svg" xmlns:xlink="http://www.w3.org/1999/xlink" x="0px" y="0px"
	 viewBox="0 0 1920 214.4" enable-background="new 0 0 1920 214.4" xml:space="preserve">
<rect x="0.2" fill="#FFFFFF" width="1920" height="214.4"/>
<rect x="0" y="115" fill="#67FC94" width="1920" height="99.4"/>
<g>
	<rect x="297.4" y="139.4" fill="#FFFFFF" width="19.5" height="25.7"/>
	<g>
		<path fill="#FFFFFF" d="M179,70.9c26.2,0,47.1,21.1,47.1,47.3c0,26.2-20.9,47-47.1,47s-47-20.8-47-47C132,92,152.8,70.9,179,70.9z
			 M179,144.2c14.4,0,26.2-11.8,26.2-26.1c0-14.4-11.8-26.3-26.2-26.3c-14.3,0-26.1,11.9-26.1,26.3
			C152.9,132.5,164.7,144.2,179,144.2z"/>
		<path fill="#FFFFFF" d="M320.8,73.7c0.3-0.7,1.2-1.4,2.2-1.4h17.4c2,0,3,1.7,2.2,3.4l-41.1,88.1c-0.4,0.8-1.2,1.4-2.2,1.4H298
			c-1,0-1.8-0.7-2.2-1.4l-40.8-88.1c-0.8-1.7,0.3-3.4,2.2-3.4h17.4c1,0,2,0.8,2.2,1.4l21.6,47.8h0.8L320.8,73.7z"/>
		<path fill="#FFFFFF" d="M379,74.7c0-1.3,1-2.5,2.5-2.5h54.2c1.4,0,2.5,1.2,2.5,2.5V89c0,1.3-1,2.5-2.5,2.5h-36.3v16.2h29.9
			c1.3,0,2.5,1.2,2.5,2.5v14.3c0,1.4-1.2,2.5-2.5,2.5h-29.9v17.7h36.3c1.4,0,2.5,1.2,2.5,2.5v14.3c0,1.3-1,2.5-2.5,2.5h-54.2
			c-1.4,0-2.5-1.2-2.5-2.5V74.7z"/>
		<path fill="#FFFFFF" d="M480.9,74.7c0-1.3,1-2.5,2.5-2.5h39.1c16.6,0,28.5,12.7,28.5,28.3c0,12-7.2,21.7-19.4,26.3l17.9,33.3
			c0.9,1.7,0,3.8-2.2,3.8H530c-1,0-1.8-0.7-2.1-1.2L510.5,128h-9v33.4c0,1.3-1.2,2.5-2.5,2.5h-15.6c-1.4,0-2.5-1.2-2.5-2.5V74.7z
			 M520.8,111.4c5.4,0,10-4.3,10-10.5s-4.6-10-10-10h-19.4v20.4H520.8z"/>
		<path fill="#FFFFFF" d="M593.7,74.7c0-1.3,1-2.5,2.5-2.5h15.6c1.3,0,2.5,1.2,2.5,2.5v69.9h31.2c1.4,0,2.5,1.2,2.5,2.5v14.3
			c0,1.3-1,2.5-2.5,2.5h-49.2c-1.4,0-2.5-1.2-2.5-2.5V74.7z"/>
		<path fill="#FFFFFF" d="M676.3,160.5l41-88.1c0.4-0.8,1.3-1.4,2.2-1.4h1.3c0.9,0,1.8,0.7,2.2,1.4l41,88.1c0.8,1.7-0.3,3.4-2.2,3.4
			h-14.5c-2.4,0-3.4-0.8-4.6-3.3l-4.7-10.3h-35.6l-4.7,10.5c-0.7,1.6-2.1,3.1-4.7,3.1h-14.4C676.6,163.9,675.5,162.2,676.3,160.5z
			 M730.1,132.5l-9.9-21.6h-0.1l-9.8,21.6H730.1z"/>
		<path fill="#FFFFFF" d="M800.6,74.7c0-1.3,1-2.5,2.5-2.5h31.6c17.3,0,29.3,13.1,29.3,28.9c0,16.2-12,29.5-29.2,29.5H821v30.8
			c0,1.3-1.2,2.5-2.5,2.5h-15.4c-1.4,0-2.5-1.2-2.5-2.5V74.7z M834.2,111.5c5.6,0,9.6-4.5,9.6-10.3c0-5.5-3.9-9.7-9.6-9.7H821v20
			H834.2z"/>
	</g>
	<g>
		<path fill="#231F20" d="M196.8,70.9C223,70.9,244,92,244,118.2c0,26.2-20.9,47-47.1,47s-47-20.8-47-47
			C149.8,92,170.7,70.9,196.8,70.9z M196.8,144.2c14.4,0,26.2-11.8,26.2-26.1c0-14.4-11.8-26.3-26.2-26.3
			c-14.3,0-26.1,11.9-26.1,26.3C170.8,132.5,182.6,144.2,196.8,144.2z"/>
		<path fill="#231F20" d="M338.6,73.7c0.3-0.7,1.2-1.4,2.2-1.4h17.4c2,0,3,1.7,2.2,3.4l-41.1,88.1c-0.4,0.8-1.2,1.4-2.2,1.4h-1.3
			c-1,0-1.8-0.7-2.2-1.4l-40.8-88.1c-0.8-1.7,0.3-3.4,2.2-3.4h17.4c1,0,2,0.8,2.2,1.4l21.6,47.8h0.8L338.6,73.7z"/>
		<path fill="#231F20" d="M396.9,74.7c0-1.3,1-2.5,2.5-2.5h54.2c1.4,0,2.5,1.2,2.5,2.5V89c0,1.3-1,2.5-2.5,2.5h-36.3v16.2h29.9
			c1.3,0,2.5,1.2,2.5,2.5v14.3c0,1.4-1.2,2.5-2.5,2.5h-29.9v17.7h36.3c1.4,0,2.5,1.2,2.5,2.5v14.3c0,1.3-1,2.5-2.5,2.5h-54.2
			c-1.4,0-2.5-1.2-2.5-2.5V74.7z"/>
		<path fill="#231F20" d="M498.7,74.7c0-1.3,1-2.5,2.5-2.5h39.1c16.6,0,28.5,12.7,28.5,28.3c0,12-7.2,21.7-19.4,26.3l17.9,33.3
			c0.9,1.7,0,3.8-2.2,3.8h-17.4c-1,0-1.8-0.7-2.1-1.2L528.3,128h-9v33.4c0,1.3-1.2,2.5-2.5,2.5h-15.6c-1.4,0-2.5-1.2-2.5-2.5V74.7z
			 M538.7,111.4c5.4,0,10-4.3,10-10.5s-4.6-10-10-10h-19.4v20.4H538.7z"/>
		<path fill="#231F20" d="M611.6,74.7c0-1.3,1-2.5,2.5-2.5h15.6c1.3,0,2.5,1.2,2.5,2.5v69.9h31.2c1.4,0,2.5,1.2,2.5,2.5v14.3
			c0,1.3-1,2.5-2.5,2.5h-49.2c-1.4,0-2.5-1.2-2.5-2.5V74.7z"/>
		<path fill="#231F20" d="M694.2,160.5l41-88.1c0.4-0.8,1.3-1.4,2.2-1.4h1.3c0.9,0,1.8,0.7,2.2,1.4l41,88.1c0.8,1.7-0.3,3.4-2.2,3.4
			h-14.5c-2.4,0-3.4-0.8-4.6-3.3l-4.7-10.3h-35.6l-4.7,10.5c-0.7,1.6-2.1,3.1-4.7,3.1h-14.4C694.4,163.9,693.4,162.2,694.2,160.5z
			 M748,132.5l-9.9-21.6h-0.1l-9.8,21.6H748z"/>
		<path fill="#231F20" d="M818.4,74.7c0-1.3,1-2.5,2.5-2.5h31.6c17.3,0,29.3,13.1,29.3,28.9c0,16.2-12,29.5-29.2,29.5h-13.7v30.8
			c0,1.3-1.2,2.5-2.5,2.5h-15.4c-1.4,0-2.5-1.2-2.5-2.5V74.7z M852.1,111.5c5.6,0,9.6-4.5,9.6-10.3c0-5.5-3.9-9.7-9.6-9.7h-13.2v20
			H852.1z"/>
	</g>
</g>
</svg>
